<svg width="280" height="282" viewBox="0 0 280 282" fill="none" xmlns="http://www.w3.org/2000/svg">
<path d="M140 0C112.311 0 85.2431 8.2695 62.2202 23.7628C39.1973 39.2561 21.2532 61.2772 10.6569 87.0416C0.0606593 112.806 -2.71181 141.156 2.69012 168.508C8.09205 195.859 21.4258 220.983 41.0051 240.702C60.5844 260.421 85.5301 273.85 112.687 279.291C139.845 284.731 167.994 281.939 193.576 271.267C219.157 260.595 241.022 242.523 256.406 219.335C271.789 196.148 280 168.887 280 141C279.959 103.617 265.196 67.7771 238.95 41.3434C212.704 14.9097 177.118 0.0411933 140 0ZM24.7241 141C24.4736 125.583 27.2721 110.271 32.9567 95.9543C38.6412 81.638 47.0981 68.6043 57.8345 57.6128C68.5709 46.6213 81.372 37.8918 95.4919 31.9331C109.612 25.9744 124.768 22.9056 140.077 22.9056C155.387 22.9056 170.543 25.9744 184.663 31.9331C198.783 37.8918 211.584 46.6213 222.32 57.6128C233.056 68.6043 241.513 81.638 247.198 95.9543C252.882 110.271 255.681 125.583 255.43 141C255.43 144.642 255.214 148.221 254.874 151.77C252.65 163.672 248.769 175.198 243.347 186.008C234.302 204.276 220.743 219.893 203.974 231.358C183.697 244.303 159.299 249.02 135.704 244.556C110.764 239.638 84 222.768 72.9978 197.182C67.2512 183.843 65.6164 169.073 68.3056 154.787C70.9949 140.501 77.884 127.359 88.0795 117.064C107.797 96.1477 144.605 95.2761 165.744 115.601C170.822 120.17 174.805 125.839 177.395 132.181C179.985 138.523 181.115 145.374 180.698 152.219C180.282 159.064 178.331 165.724 174.991 171.701C171.652 177.677 167.011 182.813 161.417 186.724C156.036 190.154 149.862 192.115 143.501 192.415C137.14 192.715 130.811 191.344 125.135 188.436C119.729 185.938 115.153 181.922 111.958 176.871C108.762 171.819 107.081 165.946 107.117 159.956C107.364 148.564 114.349 137.701 123.62 133.81C128.083 131.966 132.978 131.458 137.72 132.347C142.462 133.236 146.848 135.484 150.353 138.821C153.262 141.648 155.277 145.277 156.146 149.253C157.015 153.228 156.698 157.374 155.236 161.17C154.202 164.156 152.423 166.825 150.068 168.918C147.713 171.012 144.864 172.459 141.793 173.122C139.12 173.646 136.363 173.531 133.743 172.785C131.123 172.039 128.715 170.683 126.711 168.826C128.638 170.964 131.05 172.6 133.74 173.598C136.43 174.595 139.32 174.923 142.163 174.554C145.617 174.078 148.89 172.714 151.667 170.593C154.444 168.472 156.631 165.666 158.018 162.446C160.062 158.07 160.772 153.182 160.057 148.401C159.342 143.619 157.234 139.159 154 135.584C149.945 131.142 144.696 127.983 138.891 126.491C133.086 124.999 126.975 125.238 121.302 127.18C108.508 131.289 98.8963 144.299 97.4128 159.489C95.9294 174.678 104.645 191.486 119.046 199.579C126.627 204.076 135.242 206.502 144.04 206.617C152.837 206.732 161.512 204.531 169.205 200.232C177.261 195.437 184.12 188.849 189.257 180.972C194.395 173.096 197.674 164.139 198.843 154.789C200.122 144.899 199.114 134.845 195.897 125.412C192.681 115.98 187.343 107.424 180.3 100.412C166.101 85.9312 146.909 77.5153 126.711 76.9119C105.93 76.3373 85.7408 83.9151 70.4018 98.0463C40.4857 124.815 30.6888 170.632 45.3687 206.987C31.9564 187.631 24.7518 164.603 24.7241 141Z" fill="#F59E29"/>
</svg>
